<svg xmlns="http://www.w3.org/2000/svg" viewBox="0 0 100 100" fill="none">
  <circle cx="50" cy="50" r="48" fill="#09090b" stroke="#27272a" stroke-width="2"/>
  <g stroke="#ffffff" stroke-width="3" stroke-linecap="round" stroke-linejoin="round" opacity="0.95">
    <!-- PivotVault Flower / Loop Geometric Mark -->
    <ellipse cx="50" cy="36" rx="14" ry="22" transform="rotate(0 50 36)" fill="none" />
    <ellipse cx="64" cy="50" rx="14" ry="22" transform="rotate(90 64 50)" fill="none" />
    <ellipse cx="50" cy="64" rx="14" ry="22" transform="rotate(180 50 64)" fill="none" />
    <ellipse cx="36" cy="50" rx="14" ry="22" transform="rotate(270 36 50)" fill="none" />
    <ellipse cx="60" cy="40" rx="12" ry="18" transform="rotate(45 60 40)" fill="none" stroke="#e11d48" stroke-width="2.5" />
    <ellipse cx="60" cy="60" rx="12" ry="18" transform="rotate(135 60 60)" fill="none" stroke="#e11d48" stroke-width="2.5" />
    <ellipse cx="40" cy="60" rx="12" ry="18" transform="rotate(225 40 60)" fill="none" stroke="#e11d48" stroke-width="2.5" />
    <ellipse cx="40" cy="40" rx="12" ry="18" transform="rotate(315 40 40)" fill="none" stroke="#e11d48" stroke-width="2.5" />
  </g>
  <circle cx="50" cy="50" r="4" fill="#ffffff" />
</svg>
